#!OML:ASF E:/inclinewalkrobotboard/Project1/Captureday1/Session1/subject1.ASF
:FULLY-SPECIFIED
:DEGREES
88
root 0 0 0 -1.2268656650552177 -1.069070369325588 -3.9990887526311636
lowerback 20.357064673390006 2.7359268582196616 -0.506589847868498
upperback 2.1492889174672456 3.682600049706581 -0.1565319154725291
thorax -9.061409625880236 1.7880970004103949 -0.5152473517467445
lowerneck -7.701109927630885 -5.994824115583096 -0.9949360863243071
upperneck 0.697071443583674 -8.59154064388379 5.184315582090065
head 1.8988754651629849 -3.9495449966502125 1.241313820606133
rclavicle -1.0626193742209318E-16 -3.214225849288632E-17
rhumerus 33.432797507021995 -9.400850215727548 -30.676806470018768
rradius 143.0692093530291
rwrist -22.11720553160687
rhand -19.190935672629074 -31.53823794999927
rfingers 7.125019999999965
rthumb 7.13917718019741 -61.33934188304995
lclavicle -1.6015999680104536E-15 5.218291262865407E-16
lhumerus -46.75234208307168 -6.676775254761817 80.57717846568713
lradius 62.11156136517266
lwrist 10.78425413470316
lhand -14.388128238503354 -20.248231674554347
lfingers 7.125019999999873
lthumb 11.680867145644488 9.43127626037546
rfemur -20.879975572122824 4.90918516961891 31.52644689475862
rtibia 49.62094431590732
rfoot -10.813587538096407 -6.413193447113572
rtoes 11.870690868317428
lfemur -18.380670712123138 3.0054877891709544 -14.40630959755005
ltibia 64.62789784637609
lfoot 0.596353817612588 -9.680821073313759
ltoes -7.039180253735438
89
root 0 0 0 -1.2768949712026685 -1.1386725311947683 -4.0128604205133405
lowerback 20.197817688597752 2.855239109069906 -0.2798890513715864
upperback 2.0605991994322643 3.8483792269154735 -0.3178342226184441
thorax -9.07228287260713 1.8618503458670208 -0.8316056768678307
lowerneck -8.084206106287347 -6.000246601824381 -1.1507503421699423
upperneck -0.11351221940294032 -8.637893035091404 5.441051726351475
head 1.6633147272162496 -3.9617365244875824 1.3508208030056643
rclavicle -6.85144776358422E-16 2.9012874968321976E-16
rhumerus 34.88932842009796 -7.739082076515177 -29.442150454359286
rradius 146.08972198233357
rwrist -24.034933102428134
rhand -19.09681322810469 -31.83366342273655
rfingers 7.125019999999961
rthumb 7.229561964568636 -61.62669865086347
lclavicle -2.0682963193982604E-15 7.628696008011553E-16
lhumerus -46.755102195034894 -6.721147678321455 80.63375273095593
lradius 62.165718185861024
lwrist 10.757649676989887
lhand -14.341395435501322 -20.39248485356809
lfingers 7.125019999999876
lthumb 11.729247550149529 9.266729222887536
rfemur -16.77047166568505 6.427580406449693 32.81907965532531
rtibia 40.59609947368929
rfoot -14.489050034742881 -7.124258553186907
rtoes 10.951799649261783
lfemur -20.445123798819345 3.410232739387889 -13.861939267116474
ltibia 65.24939406370152
lfoot -0.6712553655410645 -8.62499102714294
ltoes -6.909338815725661
90
root 0 0 0 -1.3765395245776082 -1.2806055570727892 -4.010826310187919
lowerback 19.876739446388957 2.9807274174996903 0.004146779791067257
upperback 2.132196476269777 4.023119773297072 -0.4720784059109713
thorax -8.822075931970213 1.940733591216036 -1.1674324126668076
lowerneck -8.469910890511242 -5.999203659914114 -1.4004680850788163
upperneck -0.7513757103217689 -8.664809270944549 5.762968152339238
head 1.4521174435073165 -3.967046974799148 1.4950796898956393
rclavicle -8.627709252195064E-16 4.2110370714607154E-16
rhumerus 36.08938283633251 -5.423081822793252 -28.870618149732763
rradius 148.86545284295946
rwrist -24.998692322948337
rhand -19.059916351951095 -31.594069471854432
rfingers 7.125019999999956
rthumb 7.26625968975832 -61.383984380025936
lclavicle -2.2084285314457163E-15 8.19050701350225E-16
lhumerus -47.01024355289057 -6.565201146750104 80.36212525671067
lradius 62.155035426689416
lwrist 10.78540859185829
lhand -14.388658656035322 -20.248619343522684
lfingers 7.125019999999874
lthumb 11.686653010496038 9.417152440996801
rfemur -8.389325264060703 8.45213688886616 34.88069594548489
rtibia 30.28378740906072
rfoot -18.99930338964434 -7.985759664361953
rtoes 8.43133576431428
lfemur -22.327901136615242 3.450715702050062 -13.760918194523168
ltibia 63.75881310672905
lfoot -1.7704260253645572 -7.457302755656735
ltoes -5.547085505116158
91
root 0 0 0 -1.4237224988125026 -1.3668396494237787 -4.00863860854607
lowerback 19.736246012742598 3.0179764945039382 0.09725001348422768
upperback 2.187832445908252 4.075518270995761 -0.5081018773590953
thorax -8.68677859845783 1.9647287160766198 -1.260449512376097
lowerneck -8.56668008181614 -5.98919558072988 -1.4823548593641902
upperneck -0.8521627799541989 -8.654777624526673 5.857956146742762
head 1.411065563173672 -3.9609759095797887 1.539364195589246
rclavicle -9.670099639294843E-16 4.451591048480105E-16
rhumerus 36.43883745958893 -4.445149808794788 -28.88867394738341
rradius 149.8389598590285
rwrist -24.997642616176655
rhand -19.11328035143276 -31.328875817386866
rfingers 7.125019999999953
rthumb 7.215087862022128 -61.124600074226144
lclavicle -2.0799127777803267E-15 7.6515638469003905E-16
lhumerus -47.199275731312476 -6.4035537349848575 80.11960507636788
lradius 62.10369762512177
lwrist 10.802515288037366
lhand -14.449735698466881 -20.094430103697192
lfingers 7.125019999999871
lthumb 11.62945276014868 9.59397417467621
rfemur -3.9366097742165116 8.886293384423134 35.49710877942836
rtibia 27.57867887530068
rfoot -20.643867896118728 -7.996986425823262
rtoes 7.227347455079914
lfemur -23.386660730073594 3.248730572520009 -13.953597688740155
ltibia 61.517729918230174
lfoot -2.2198799331155996 -6.758620296204318
ltoes -3.8630861989497447
92
root 0 0 0 -1.4508717913740892 -1.4352418298008622 -4.006154072578905
lowerback 19.699460248960968 3.033151095085386 0.1376593614003193
upperback 2.21892485540214 4.097176357971163 -0.5219138970931412
thorax -8.635439188720818 1.974293359519193 -1.2992576647622711
lowerneck -8.601045831777633 -5.976097167603151 -1.5043289994799636
upperneck -0.9222780926630616 -8.634786641977843 5.878707436278228
head 1.3858615151952023 -3.952241869088926 1.5511482482133143
rclavicle -9.471126497844519E-16 5.363221728769717E-16
rhumerus 36.595715885342656 -3.993037511042166 -28.92268358669724
rradius 150.3705004675051
rwrist -24.978029890621983
rhand -19.18484490646371 -31.19514786355775
rfingers 7.125019999999952
rthumb 7.146549654267901 -60.99762571976538
lclavicle -1.870016817319823E-15 7.943703313872776E-16
lhumerus -47.310883538881605 -6.288480638497141 79.96089494094136
lradius 62.05684454438411
lwrist 10.801163958807033
lhand -14.490429603262946 -20.010049080922855
lfingers 7.12501999999987
lthumb 11.59194687397919 9.694184605826544
rfemur -1.3889432078688864 8.991298518105085 35.72142887326183
rtibia 26.60469614988817
rfoot -21.433167245675925 -7.9224638226673605
rtoes 6.459304757657482
lfemur -24.4831584851282 2.9270621151890235 -14.352893199460684
ltibia 58.4044676078523
lfoot -2.5974133362027434 -6.032267562310584
ltoes -1.4556440280936513
93
root 0 0 0 -1.4675572913045638 -1.4883670545770136 -4.00078863618056
lowerback 19.734794807101665 3.03582356835839 0.15175967170175086
upperback 2.2413984320577733 4.101201397773603 -0.5277471301831995
thorax -8.633480718405732 1.9753952940904926 -1.314178011440424
lowerneck -8.61258058572722 -5.963275336653737 -1.4978125006783058
upperneck -1.0283112720999323 -8.61145941067187 5.859880102907013
head 1.3524054871498636 -3.9436138298571164 1.5463520597238856
rclavicle -9.130633995460142E-16 6.977447622682894E-16
rhumerus 36.623537918671396 -3.890441757594834 -28.997236349709368
rradius 150.60185095005957
rwrist -24.857369254063677
rhand -19.280355193780505 -31.128197471605322
rfingers 7.125019999999953
rthumb 7.055195160430189 -60.936858882553786
lclavicle -1.7460777958231886E-15 8.987359308400347E-16
lhumerus -47.364661516421734 -6.221066366910445 79.86508861005348
lradius 62.02598174741854
lwrist 10.803592300840506
lhand -14.520706895460831 -19.954054742720658
lfingers 7.125019999999869
lthumb 11.563620518599514 9.76171198376005
rfemur -0.3163686831008401 8.97925565397587 35.75766379915565
rtibia 26.474533447396297
rfoot -21.68116175234493 -7.891268808451968
rtoes 5.928512101043404
lfemur -25.599308485456802 2.499175655576732 -15.031940713605435
ltibia 54.41801529818307
lfoot -2.9407015574659017 -5.278980479135265
ltoes 1.8248422647106821
